<?xml version="1.0"?>
<svg width="50" height="50" xmlns="http://www.w3.org/2000/svg" xmlns:svg="http://www.w3.org/2000/svg" enable-background="new 0 0 140 50" version="1.1" xml:space="preserve">
 <style type="text/css">.st0{fill-rule:evenodd;clip-rule:evenodd;fill:#A51440;}
	.st1{fill:#221E20;}</style>
 <g class="layer">
  <title>Layer 1</title>
  <g id="XMLID_200_">
   <path class="st0" d="m35.95,6c-4.17,2.5 -7.24,6.6 -8.43,9.4c-0.1,0.3 -0.2,0.8 0,0.8c21.12,-7 18.65,26 -1.29,21.7c-0.5,5.3 -1.19,7.7 -2.68,11c-0.1,0.2 -0.4,0.4 -0.6,0.4c-0.2,-0.1 -0.3,-0.2 -0.3,-0.5c0.6,-3.5 1.19,-7.1 -1.49,-11.1c-1.98,-2.9 -9.52,-1.9 -12.1,-4.8c-7.04,-8.3 0.6,-21.8 11.6,-15.8c-1.09,-4 -2.08,-10.1 0.1,-15.9c0,-0.1 0.1,-0.3 0.2,-0.4c0.3,-0.3 0.89,0 1.29,0.1c0.89,0.3 1.39,0.8 2.28,1.1c0.5,0.6 -0.4,1.1 -0.3,2c0.69,-0.9 1.09,-2.1 1.79,-3.1c1.49,0.4 2.48,1.3 3.27,2.3c-0.6,1.6 -1.49,2.9 -1.98,4.6c1.29,-1.4 3.97,-4 6.55,-5.1c0.99,0.6 2.08,2.9 2.08,3.3l0.01,0z" id="XMLID_201_"/>
  </g>
 </g>
</svg>