<svg width="198px" height="32px" class="hidden">
  <symbol  fill="none" xmlns="http://www.w3.org/2000/svg" viewBox="0 0 198 32" id="logoblack">
    <path d="M48.132 29C47.712 29 47.362 28.86 47.082 28.58C46.8253 28.3 46.697 27.9617 46.697 27.565V5.9C46.697 5.50333 46.8253 5.17667 47.082 4.92C47.362 4.64 47.7003 4.5 48.097 4.5H60.382C60.7787 4.5 61.117 4.62833 61.397 4.885C61.677 5.14167 61.817 5.46833 61.817 5.865C61.817 6.23833 61.677 6.55333 61.397 6.81C61.117 7.06667 60.7787 7.195 60.382 7.195H49.357L49.567 6.915V15.49L49.392 15.105H58.807C59.2037 15.105 59.542 15.245 59.822 15.525C60.102 15.7817 60.242 16.1083 60.242 16.505C60.242 16.855 60.102 17.17 59.822 17.45C59.542 17.7067 59.2037 17.835 58.807 17.835H49.322L49.567 17.52V27.565C49.567 27.9617 49.427 28.3 49.147 28.58C48.867 28.86 48.5287 29 48.132 29ZM67.0894 29C66.6928 29 66.3544 28.86 66.0744 28.58C65.8178 28.3 65.6894 27.9617 65.6894 27.565V12.305C65.6894 11.9083 65.8178 11.5817 66.0744 11.325C66.3544 11.045 66.6928 10.905 67.0894 10.905C67.5094 10.905 67.8478 11.045 68.1044 11.325C68.3611 11.5817 68.4894 11.9083 68.4894 12.305V16.925L68.0694 16.19C68.2094 15.4667 68.4544 14.7667 68.8044 14.09C69.1778 13.39 69.6444 12.7717 70.2044 12.235C70.7644 11.675 71.4061 11.2433 72.1294 10.94C72.8528 10.6133 73.6461 10.45 74.5094 10.45C75.0228 10.45 75.4894 10.5783 75.9094 10.835C76.3528 11.0683 76.5744 11.4067 76.5744 11.85C76.5744 12.34 76.4461 12.7017 76.1894 12.935C75.9328 13.1683 75.6411 13.285 75.3144 13.285C75.0111 13.285 74.7194 13.2267 74.4394 13.11C74.1594 12.97 73.8094 12.9 73.3894 12.9C72.8061 12.9 72.2228 13.0633 71.6394 13.39C71.0794 13.6933 70.5544 14.1367 70.0644 14.72C69.5978 15.3033 69.2128 15.9683 68.9094 16.715C68.6294 17.4383 68.4894 18.22 68.4894 19.06V27.565C68.4894 27.9617 68.3494 28.3 68.0694 28.58C67.8128 28.86 67.4861 29 67.0894 29ZM87.3161 29.35C85.4495 29.35 83.8161 28.9533 82.4161 28.16C81.0161 27.3667 79.9195 26.2817 79.1261 24.905C78.3561 23.505 77.9711 21.895 77.9711 20.075C77.9711 18.045 78.3678 16.3183 79.1611 14.895C79.9778 13.4483 81.0278 12.3517 82.3111 11.605C83.6178 10.835 84.9945 10.45 86.4411 10.45C87.5145 10.45 88.5528 10.6483 89.5561 11.045C90.5595 11.4417 91.4461 12.025 92.2161 12.795C92.9861 13.5417 93.6045 14.4517 94.0711 15.525C94.5378 16.575 94.7828 17.7533 94.8061 19.06C94.8061 19.4333 94.6661 19.7483 94.3861 20.005C94.1061 20.2617 93.7795 20.39 93.4061 20.39H79.5811L78.9511 17.975H92.4261L91.8661 18.465V17.695C91.7728 16.7383 91.4461 15.9217 90.8861 15.245C90.3495 14.545 89.6845 14.0083 88.8911 13.635C88.1211 13.2617 87.3045 13.075 86.4411 13.075C85.7411 13.075 85.0411 13.2033 84.3411 13.46C83.6645 13.6933 83.0461 14.09 82.4861 14.65C81.9495 15.1867 81.5061 15.8867 81.1561 16.75C80.8295 17.6133 80.6661 18.6517 80.6661 19.865C80.6661 21.2183 80.9345 22.4083 81.4711 23.435C82.0311 24.4617 82.8011 25.2783 83.7811 25.885C84.7611 26.4683 85.9045 26.76 87.2111 26.76C88.0278 26.76 88.7395 26.655 89.3461 26.445C89.9528 26.235 90.4778 25.9783 90.9211 25.675C91.3645 25.3483 91.7378 25.0217 92.0411 24.695C92.3445 24.485 92.6361 24.38 92.9161 24.38C93.2661 24.38 93.5461 24.4967 93.7561 24.73C93.9895 24.9633 94.1061 25.2433 94.1061 25.57C94.1061 25.9667 93.9195 26.3167 93.5461 26.62C92.8928 27.3433 92.0061 27.985 90.8861 28.545C89.7661 29.0817 88.5761 29.35 87.3161 29.35ZM107.38 29.35C105.513 29.35 103.88 28.9533 102.48 28.16C101.08 27.3667 99.983 26.2817 99.1896 24.905C98.4196 23.505 98.0346 21.895 98.0346 20.075C98.0346 18.045 98.4313 16.3183 99.2246 14.895C100.041 13.4483 101.091 12.3517 102.375 11.605C103.681 10.835 105.058 10.45 106.505 10.45C107.578 10.45 108.616 10.6483 109.62 11.045C110.623 11.4417 111.51 12.025 112.28 12.795C113.05 13.5417 113.668 14.4517 114.135 15.525C114.601 16.575 114.846 17.7533 114.87 19.06C114.87 19.4333 114.73 19.7483 114.45 20.005C114.17 20.2617 113.843 20.39 113.47 20.39H99.6446L99.0146 17.975H112.49L111.93 18.465V17.695C111.836 16.7383 111.51 15.9217 110.95 15.245C110.413 14.545 109.748 14.0083 108.955 13.635C108.185 13.2617 107.368 13.075 106.505 13.075C105.805 13.075 105.105 13.2033 104.405 13.46C103.728 13.6933 103.11 14.09 102.55 14.65C102.013 15.1867 101.57 15.8867 101.22 16.75C100.893 17.6133 100.73 18.6517 100.73 19.865C100.73 21.2183 100.998 22.4083 101.535 23.435C102.095 24.4617 102.865 25.2783 103.845 25.885C104.825 26.4683 105.968 26.76 107.275 26.76C108.091 26.76 108.803 26.655 109.41 26.445C110.016 26.235 110.541 25.9783 110.985 25.675C111.428 25.3483 111.801 25.0217 112.105 24.695C112.408 24.485 112.7 24.38 112.98 24.38C113.33 24.38 113.61 24.4967 113.82 24.73C114.053 24.9633 114.17 25.2433 114.17 25.57C114.17 25.9667 113.983 26.3167 113.61 26.62C112.956 27.3433 112.07 27.985 110.95 28.545C109.83 29.0817 108.64 29.35 107.38 29.35ZM127.828 10.625C129.368 10.625 130.581 10.9633 131.468 11.64C132.378 12.2933 133.02 13.18 133.393 14.3C133.79 15.3967 133.988 16.6217 133.988 17.975V27.565C133.988 27.9617 133.848 28.3 133.568 28.58C133.311 28.86 132.985 29 132.588 29C132.191 29 131.853 28.86 131.573 28.58C131.316 28.3 131.188 27.9617 131.188 27.565V17.975C131.188 17.0883 131.06 16.295 130.803 15.595C130.546 14.8717 130.115 14.3 129.508 13.88C128.925 13.4367 128.12 13.215 127.093 13.215C126.136 13.215 125.261 13.4367 124.468 13.88C123.675 14.3 123.045 14.8717 122.578 15.595C122.111 16.295 121.878 17.0883 121.878 17.975V27.565C121.878 27.9617 121.738 28.3 121.458 28.58C121.201 28.86 120.875 29 120.478 29C120.081 29 119.743 28.86 119.463 28.58C119.206 28.3 119.078 27.9617 119.078 27.565V4.5C119.078 4.10333 119.206 3.77667 119.463 3.52C119.743 3.24 120.081 3.1 120.478 3.1C120.898 3.1 121.236 3.24 121.493 3.52C121.75 3.77667 121.878 4.10333 121.878 4.5V14.965L121.178 15.735C121.295 15.1283 121.551 14.5217 121.948 13.915C122.345 13.285 122.846 12.725 123.453 12.235C124.06 11.745 124.736 11.36 125.483 11.08C126.23 10.7767 127.011 10.625 127.828 10.625ZM154.086 10.73C154.482 10.73 154.809 10.87 155.066 11.15C155.346 11.4067 155.486 11.7333 155.486 12.13V27.565C155.486 27.9617 155.346 28.3 155.066 28.58C154.809 28.86 154.482 29 154.086 29C153.666 29 153.327 28.86 153.071 28.58C152.814 28.3 152.686 27.9617 152.686 27.565V24.24L153.351 24.17C153.351 24.6833 153.176 25.2433 152.826 25.85C152.476 26.4567 151.997 27.0283 151.391 27.565C150.784 28.0783 150.061 28.51 149.221 28.86C148.404 29.1867 147.517 29.35 146.561 29.35C144.974 29.35 143.551 28.9417 142.291 28.125C141.031 27.285 140.027 26.1533 139.281 24.73C138.557 23.3067 138.196 21.685 138.196 19.865C138.196 18.0217 138.557 16.4 139.281 15C140.027 13.5767 141.031 12.4683 142.291 11.675C143.551 10.8583 144.951 10.45 146.491 10.45C147.494 10.45 148.427 10.6133 149.291 10.94C150.154 11.2667 150.901 11.71 151.531 12.27C152.184 12.83 152.686 13.4483 153.036 14.125C153.409 14.8017 153.596 15.4783 153.596 16.155L152.686 15.945V12.13C152.686 11.7333 152.814 11.4067 153.071 11.15C153.327 10.87 153.666 10.73 154.086 10.73ZM146.876 26.76C148.042 26.76 149.069 26.4567 149.956 25.85C150.866 25.2433 151.566 24.4267 152.056 23.4C152.569 22.35 152.826 21.1717 152.826 19.865C152.826 18.5817 152.569 17.4267 152.056 16.4C151.566 15.35 150.866 14.5333 149.956 13.95C149.069 13.3433 148.042 13.04 146.876 13.04C145.732 13.04 144.706 13.3317 143.796 13.915C142.909 14.4983 142.209 15.3033 141.696 16.33C141.182 17.3567 140.926 18.535 140.926 19.865C140.926 21.1717 141.171 22.35 141.661 23.4C142.174 24.4267 142.874 25.2433 143.761 25.85C144.671 26.4567 145.709 26.76 146.876 26.76ZM169.67 10.45C171.256 10.45 172.505 10.7767 173.415 11.43C174.325 12.0833 174.966 12.9583 175.34 14.055C175.736 15.1517 175.935 16.3767 175.935 17.73V27.565C175.935 27.9617 175.795 28.3 175.515 28.58C175.258 28.86 174.931 29 174.535 29C174.138 29 173.8 28.86 173.52 28.58C173.263 28.3 173.135 27.9617 173.135 27.565V17.8C173.135 16.9133 172.995 16.12 172.715 15.42C172.458 14.6967 172.015 14.125 171.385 13.705C170.778 13.2617 169.938 13.04 168.865 13.04C167.885 13.04 166.986 13.2617 166.17 13.705C165.353 14.125 164.7 14.6967 164.21 15.42C163.72 16.12 163.475 16.9133 163.475 17.8V27.565C163.475 27.9617 163.335 28.3 163.055 28.58C162.798 28.86 162.471 29 162.075 29C161.678 29 161.34 28.86 161.06 28.58C160.803 28.3 160.675 27.9617 160.675 27.565V12.305C160.675 11.9083 160.803 11.5817 161.06 11.325C161.34 11.045 161.678 10.905 162.075 10.905C162.495 10.905 162.833 11.045 163.09 11.325C163.346 11.5817 163.475 11.9083 163.475 12.305V14.79L162.775 15.56C162.891 14.9533 163.16 14.3467 163.58 13.74C164 13.11 164.525 12.55 165.155 12.06C165.785 11.57 166.485 11.185 167.255 10.905C168.025 10.6017 168.83 10.45 169.67 10.45ZM196.024 3.1C196.421 3.1 196.748 3.24 197.004 3.52C197.284 3.77667 197.424 4.10333 197.424 4.5V27.565C197.424 27.9617 197.284 28.3 197.004 28.58C196.748 28.86 196.421 29 196.024 29C195.604 29 195.266 28.86 195.009 28.58C194.753 28.3 194.624 27.9617 194.624 27.565V24.24L195.289 23.995C195.289 24.555 195.114 25.15 194.764 25.78C194.414 26.3867 193.936 26.9583 193.329 27.495C192.723 28.0317 191.999 28.475 191.159 28.825C190.343 29.175 189.456 29.35 188.499 29.35C186.936 29.35 185.513 28.9417 184.229 28.125C182.969 27.3083 181.966 26.1883 181.219 24.765C180.496 23.3417 180.134 21.72 180.134 19.9C180.134 18.0567 180.496 16.4233 181.219 15C181.966 13.5767 182.969 12.4683 184.229 11.675C185.489 10.8583 186.889 10.45 188.429 10.45C189.409 10.45 190.331 10.6133 191.194 10.94C192.058 11.2667 192.804 11.71 193.434 12.27C194.088 12.83 194.601 13.4483 194.974 14.125C195.348 14.8017 195.534 15.4783 195.534 16.155L194.624 15.945V4.5C194.624 4.10333 194.753 3.77667 195.009 3.52C195.266 3.24 195.604 3.1 196.024 3.1ZM188.814 26.76C189.981 26.76 191.008 26.4683 191.894 25.885C192.804 25.2783 193.504 24.4617 193.994 23.435C194.508 22.385 194.764 21.2067 194.764 19.9C194.764 18.57 194.508 17.3917 193.994 16.365C193.504 15.3383 192.804 14.5333 191.894 13.95C191.008 13.3433 189.981 13.04 188.814 13.04C187.671 13.04 186.644 13.3433 185.734 13.95C184.848 14.5333 184.148 15.3383 183.634 16.365C183.121 17.3917 182.864 18.57 182.864 19.9C182.864 21.1833 183.121 22.35 183.634 23.4C184.148 24.4267 184.848 25.2433 185.734 25.85C186.644 26.4567 187.671 26.76 188.814 26.76Z" fill="#16133D"></path>
    <path d="M23.2972 0.5C27.8569 0.5 31.5638 4.2184 31.5638 8.78711C31.5638 11.8485 29.9182 14.5644 27.3666 16C29.9182 17.4356 31.5638 20.1515 31.5638 23.2129C31.5638 27.7816 27.8569 31.5 23.2972 31.5C20.2408 31.4999 17.4911 29.7932 16.0638 27.2158C14.6365 29.7932 11.8867 31.4999 8.83044 31.5C4.27077 31.5 0.563843 27.7816 0.563843 23.2129C0.563843 20.1518 2.2089 17.4357 4.76013 16C2.2089 14.5643 0.563843 11.8482 0.563843 8.78711C0.563843 4.2184 4.27077 0.5 8.83044 0.5C11.8864 0.50011 14.6364 2.20623 16.0638 4.7832C17.4912 2.2062 20.2411 0.500109 23.2972 0.5ZM23.2972 2.25C20.2318 2.25014 17.5475 4.4331 16.9193 7.43848C16.835 7.84322 16.4784 8.13477 16.0638 8.13477C15.6494 8.13472 15.2927 7.84319 15.2084 7.43848C14.58 4.4331 11.8959 2.25014 8.83044 2.25C5.23793 2.25 2.31189 5.18162 2.31189 8.78711C2.31189 11.8429 4.38363 14.4559 7.35095 15.1475C7.74805 15.2397 8.02673 15.5948 8.02673 16C8.02673 16.4055 7.74746 16.7595 7.34998 16.8516C4.38303 17.5434 2.31189 20.1573 2.31189 23.2129C2.31189 26.8184 5.23793 29.75 8.83044 29.75C11.8959 29.7499 14.58 27.5669 15.2084 24.5615L15.2523 24.415C15.3828 24.0883 15.7013 23.8653 16.0638 23.8652C16.4264 23.8652 16.7449 24.0883 16.8754 24.415L16.9193 24.5615L16.9838 24.8408C17.7152 27.7013 20.3275 29.7499 23.2972 29.75C26.8898 29.75 29.8158 26.8184 29.8158 23.2129C29.8158 20.1571 27.7441 17.5441 24.7767 16.8525C24.3796 16.7603 24.101 16.4052 24.101 16C24.101 15.5948 24.3796 15.2397 24.7767 15.1475C27.7441 14.4559 29.8158 11.8429 29.8158 8.78711C29.8158 5.18162 26.8898 2.25 23.2972 2.25Z" fill="#3DB370" stroke="#3DB370"></path>
  </symbol>
  <symbol fill="none" xmlns="http://www.w3.org/2000/svg" viewBox="0 0 198 33" id="logowhite">
    <path d="M48.132 29.5C47.712 29.5 47.362 29.36 47.082 29.08C46.8253 28.8 46.697 28.4617 46.697 28.065V6.4C46.697 6.00333 46.8253 5.67667 47.082 5.42C47.362 5.14 47.7003 5 48.097 5H60.382C60.7787 5 61.117 5.12833 61.397 5.385C61.677 5.64167 61.817 5.96833 61.817 6.365C61.817 6.73833 61.677 7.05333 61.397 7.31C61.117 7.56667 60.7787 7.695 60.382 7.695H49.357L49.567 7.415V15.99L49.392 15.605H58.807C59.2037 15.605 59.542 15.745 59.822 16.025C60.102 16.2817 60.242 16.6083 60.242 17.005C60.242 17.355 60.102 17.67 59.822 17.95C59.542 18.2067 59.2037 18.335 58.807 18.335H49.322L49.567 18.02V28.065C49.567 28.4617 49.427 28.8 49.147 29.08C48.867 29.36 48.5287 29.5 48.132 29.5ZM67.0894 29.5C66.6928 29.5 66.3544 29.36 66.0744 29.08C65.8178 28.8 65.6894 28.4617 65.6894 28.065V12.805C65.6894 12.4083 65.8178 12.0817 66.0744 11.825C66.3544 11.545 66.6928 11.405 67.0894 11.405C67.5094 11.405 67.8478 11.545 68.1044 11.825C68.3611 12.0817 68.4894 12.4083 68.4894 12.805V17.425L68.0694 16.69C68.2094 15.9667 68.4544 15.2667 68.8044 14.59C69.1778 13.89 69.6444 13.2717 70.2044 12.735C70.7644 12.175 71.4061 11.7433 72.1294 11.44C72.8528 11.1133 73.6461 10.95 74.5094 10.95C75.0228 10.95 75.4894 11.0783 75.9094 11.335C76.3528 11.5683 76.5744 11.9067 76.5744 12.35C76.5744 12.84 76.4461 13.2017 76.1894 13.435C75.9328 13.6683 75.6411 13.785 75.3144 13.785C75.0111 13.785 74.7194 13.7267 74.4394 13.61C74.1594 13.47 73.8094 13.4 73.3894 13.4C72.8061 13.4 72.2228 13.5633 71.6394 13.89C71.0794 14.1933 70.5544 14.6367 70.0644 15.22C69.5978 15.8033 69.2128 16.4683 68.9094 17.215C68.6294 17.9383 68.4894 18.72 68.4894 19.56V28.065C68.4894 28.4617 68.3494 28.8 68.0694 29.08C67.8128 29.36 67.4861 29.5 67.0894 29.5ZM87.3161 29.85C85.4495 29.85 83.8161 29.4533 82.4161 28.66C81.0161 27.8667 79.9195 26.7817 79.1261 25.405C78.3561 24.005 77.9711 22.395 77.9711 20.575C77.9711 18.545 78.3678 16.8183 79.1611 15.395C79.9778 13.9483 81.0278 12.8517 82.3111 12.105C83.6178 11.335 84.9945 10.95 86.4411 10.95C87.5145 10.95 88.5528 11.1483 89.5561 11.545C90.5595 11.9417 91.4461 12.525 92.2161 13.295C92.9861 14.0417 93.6045 14.9517 94.0711 16.025C94.5378 17.075 94.7828 18.2533 94.8061 19.56C94.8061 19.9333 94.6661 20.2483 94.3861 20.505C94.1061 20.7617 93.7795 20.89 93.4061 20.89H79.5811L78.9511 18.475H92.4261L91.8661 18.965V18.195C91.7728 17.2383 91.4461 16.4217 90.8861 15.745C90.3495 15.045 89.6845 14.5083 88.8911 14.135C88.1211 13.7617 87.3045 13.575 86.4411 13.575C85.7411 13.575 85.0411 13.7033 84.3411 13.96C83.6645 14.1933 83.0461 14.59 82.4861 15.15C81.9495 15.6867 81.5061 16.3867 81.1561 17.25C80.8295 18.1133 80.6661 19.1517 80.6661 20.365C80.6661 21.7183 80.9345 22.9083 81.4711 23.935C82.0311 24.9617 82.8011 25.7783 83.7811 26.385C84.7611 26.9683 85.9045 27.26 87.2111 27.26C88.0278 27.26 88.7395 27.155 89.3461 26.945C89.9528 26.735 90.4778 26.4783 90.9211 26.175C91.3645 25.8483 91.7378 25.5217 92.0411 25.195C92.3445 24.985 92.6361 24.88 92.9161 24.88C93.2661 24.88 93.5461 24.9967 93.7561 25.23C93.9895 25.4633 94.1061 25.7433 94.1061 26.07C94.1061 26.4667 93.9195 26.8167 93.5461 27.12C92.8928 27.8433 92.0061 28.485 90.8861 29.045C89.7661 29.5817 88.5761 29.85 87.3161 29.85ZM107.38 29.85C105.513 29.85 103.88 29.4533 102.48 28.66C101.08 27.8667 99.983 26.7817 99.1896 25.405C98.4196 24.005 98.0346 22.395 98.0346 20.575C98.0346 18.545 98.4313 16.8183 99.2246 15.395C100.041 13.9483 101.091 12.8517 102.375 12.105C103.681 11.335 105.058 10.95 106.505 10.95C107.578 10.95 108.616 11.1483 109.62 11.545C110.623 11.9417 111.51 12.525 112.28 13.295C113.05 14.0417 113.668 14.9517 114.135 16.025C114.601 17.075 114.846 18.2533 114.87 19.56C114.87 19.9333 114.73 20.2483 114.45 20.505C114.17 20.7617 113.843 20.89 113.47 20.89H99.6446L99.0146 18.475H112.49L111.93 18.965V18.195C111.836 17.2383 111.51 16.4217 110.95 15.745C110.413 15.045 109.748 14.5083 108.955 14.135C108.185 13.7617 107.368 13.575 106.505 13.575C105.805 13.575 105.105 13.7033 104.405 13.96C103.728 14.1933 103.11 14.59 102.55 15.15C102.013 15.6867 101.57 16.3867 101.22 17.25C100.893 18.1133 100.73 19.1517 100.73 20.365C100.73 21.7183 100.998 22.9083 101.535 23.935C102.095 24.9617 102.865 25.7783 103.845 26.385C104.825 26.9683 105.968 27.26 107.275 27.26C108.091 27.26 108.803 27.155 109.41 26.945C110.016 26.735 110.541 26.4783 110.985 26.175C111.428 25.8483 111.801 25.5217 112.105 25.195C112.408 24.985 112.7 24.88 112.98 24.88C113.33 24.88 113.61 24.9967 113.82 25.23C114.053 25.4633 114.17 25.7433 114.17 26.07C114.17 26.4667 113.983 26.8167 113.61 27.12C112.956 27.8433 112.07 28.485 110.95 29.045C109.83 29.5817 108.64 29.85 107.38 29.85ZM127.828 11.125C129.368 11.125 130.581 11.4633 131.468 12.14C132.378 12.7933 133.02 13.68 133.393 14.8C133.79 15.8967 133.988 17.1217 133.988 18.475V28.065C133.988 28.4617 133.848 28.8 133.568 29.08C133.311 29.36 132.985 29.5 132.588 29.5C132.191 29.5 131.853 29.36 131.573 29.08C131.316 28.8 131.188 28.4617 131.188 28.065V18.475C131.188 17.5883 131.06 16.795 130.803 16.095C130.546 15.3717 130.115 14.8 129.508 14.38C128.925 13.9367 128.12 13.715 127.093 13.715C126.136 13.715 125.261 13.9367 124.468 14.38C123.675 14.8 123.045 15.3717 122.578 16.095C122.111 16.795 121.878 17.5883 121.878 18.475V28.065C121.878 28.4617 121.738 28.8 121.458 29.08C121.201 29.36 120.875 29.5 120.478 29.5C120.081 29.5 119.743 29.36 119.463 29.08C119.206 28.8 119.078 28.4617 119.078 28.065V5C119.078 4.60333 119.206 4.27667 119.463 4.02C119.743 3.74 120.081 3.6 120.478 3.6C120.898 3.6 121.236 3.74 121.493 4.02C121.75 4.27667 121.878 4.60333 121.878 5V15.465L121.178 16.235C121.295 15.6283 121.551 15.0217 121.948 14.415C122.345 13.785 122.846 13.225 123.453 12.735C124.06 12.245 124.736 11.86 125.483 11.58C126.23 11.2767 127.011 11.125 127.828 11.125ZM154.086 11.23C154.482 11.23 154.809 11.37 155.066 11.65C155.346 11.9067 155.486 12.2333 155.486 12.63V28.065C155.486 28.4617 155.346 28.8 155.066 29.08C154.809 29.36 154.482 29.5 154.086 29.5C153.666 29.5 153.327 29.36 153.071 29.08C152.814 28.8 152.686 28.4617 152.686 28.065V24.74L153.351 24.67C153.351 25.1833 153.176 25.7433 152.826 26.35C152.476 26.9567 151.997 27.5283 151.391 28.065C150.784 28.5783 150.061 29.01 149.221 29.36C148.404 29.6867 147.517 29.85 146.561 29.85C144.974 29.85 143.551 29.4417 142.291 28.625C141.031 27.785 140.027 26.6533 139.281 25.23C138.557 23.8067 138.196 22.185 138.196 20.365C138.196 18.5217 138.557 16.9 139.281 15.5C140.027 14.0767 141.031 12.9683 142.291 12.175C143.551 11.3583 144.951 10.95 146.491 10.95C147.494 10.95 148.427 11.1133 149.291 11.44C150.154 11.7667 150.901 12.21 151.531 12.77C152.184 13.33 152.686 13.9483 153.036 14.625C153.409 15.3017 153.596 15.9783 153.596 16.655L152.686 16.445V12.63C152.686 12.2333 152.814 11.9067 153.071 11.65C153.327 11.37 153.666 11.23 154.086 11.23ZM146.876 27.26C148.042 27.26 149.069 26.9567 149.956 26.35C150.866 25.7433 151.566 24.9267 152.056 23.9C152.569 22.85 152.826 21.6717 152.826 20.365C152.826 19.0817 152.569 17.9267 152.056 16.9C151.566 15.85 150.866 15.0333 149.956 14.45C149.069 13.8433 148.042 13.54 146.876 13.54C145.732 13.54 144.706 13.8317 143.796 14.415C142.909 14.9983 142.209 15.8033 141.696 16.83C141.182 17.8567 140.926 19.035 140.926 20.365C140.926 21.6717 141.171 22.85 141.661 23.9C142.174 24.9267 142.874 25.7433 143.761 26.35C144.671 26.9567 145.709 27.26 146.876 27.26ZM169.67 10.95C171.256 10.95 172.505 11.2767 173.415 11.93C174.325 12.5833 174.966 13.4583 175.34 14.555C175.736 15.6517 175.935 16.8767 175.935 18.23V28.065C175.935 28.4617 175.795 28.8 175.515 29.08C175.258 29.36 174.931 29.5 174.535 29.5C174.138 29.5 173.8 29.36 173.52 29.08C173.263 28.8 173.135 28.4617 173.135 28.065V18.3C173.135 17.4133 172.995 16.62 172.715 15.92C172.458 15.1967 172.015 14.625 171.385 14.205C170.778 13.7617 169.938 13.54 168.865 13.54C167.885 13.54 166.986 13.7617 166.17 14.205C165.353 14.625 164.7 15.1967 164.21 15.92C163.72 16.62 163.475 17.4133 163.475 18.3V28.065C163.475 28.4617 163.335 28.8 163.055 29.08C162.798 29.36 162.471 29.5 162.075 29.5C161.678 29.5 161.34 29.36 161.06 29.08C160.803 28.8 160.675 28.4617 160.675 28.065V12.805C160.675 12.4083 160.803 12.0817 161.06 11.825C161.34 11.545 161.678 11.405 162.075 11.405C162.495 11.405 162.833 11.545 163.09 11.825C163.346 12.0817 163.475 12.4083 163.475 12.805V15.29L162.775 16.06C162.891 15.4533 163.16 14.8467 163.58 14.24C164 13.61 164.525 13.05 165.155 12.56C165.785 12.07 166.485 11.685 167.255 11.405C168.025 11.1017 168.83 10.95 169.67 10.95ZM196.024 3.6C196.421 3.6 196.748 3.74 197.004 4.02C197.284 4.27667 197.424 4.60333 197.424 5V28.065C197.424 28.4617 197.284 28.8 197.004 29.08C196.748 29.36 196.421 29.5 196.024 29.5C195.604 29.5 195.266 29.36 195.009 29.08C194.753 28.8 194.624 28.4617 194.624 28.065V24.74L195.289 24.495C195.289 25.055 195.114 25.65 194.764 26.28C194.414 26.8867 193.936 27.4583 193.329 27.995C192.723 28.5317 191.999 28.975 191.159 29.325C190.343 29.675 189.456 29.85 188.499 29.85C186.936 29.85 185.513 29.4417 184.229 28.625C182.969 27.8083 181.966 26.6883 181.219 25.265C180.496 23.8417 180.134 22.22 180.134 20.4C180.134 18.5567 180.496 16.9233 181.219 15.5C181.966 14.0767 182.969 12.9683 184.229 12.175C185.489 11.3583 186.889 10.95 188.429 10.95C189.409 10.95 190.331 11.1133 191.194 11.44C192.058 11.7667 192.804 12.21 193.434 12.77C194.088 13.33 194.601 13.9483 194.974 14.625C195.348 15.3017 195.534 15.9783 195.534 16.655L194.624 16.445V5C194.624 4.60333 194.753 4.27667 195.009 4.02C195.266 3.74 195.604 3.6 196.024 3.6ZM188.814 27.26C189.981 27.26 191.008 26.9683 191.894 26.385C192.804 25.7783 193.504 24.9617 193.994 23.935C194.508 22.885 194.764 21.7067 194.764 20.4C194.764 19.07 194.508 17.8917 193.994 16.865C193.504 15.8383 192.804 15.0333 191.894 14.45C191.008 13.8433 189.981 13.54 188.814 13.54C187.671 13.54 186.644 13.8433 185.734 14.45C184.848 15.0333 184.148 15.8383 183.634 16.865C183.121 17.8917 182.864 19.07 182.864 20.4C182.864 21.6833 183.121 22.85 183.634 23.9C184.148 24.9267 184.848 25.7433 185.734 26.35C186.644 26.9567 187.671 27.26 188.814 27.26Z" fill="white"></path>
    <path d="M23.2972 1C27.8569 1 31.5638 4.7184 31.5638 9.28711C31.5638 12.3485 29.9182 15.0644 27.3666 16.5C29.9182 17.9356 31.5638 20.6515 31.5638 23.7129C31.5638 28.2816 27.8569 32 23.2972 32C20.2408 31.9999 17.4911 30.2932 16.0638 27.7158C14.6365 30.2932 11.8867 31.9999 8.83044 32C4.27077 32 0.563843 28.2816 0.563843 23.7129C0.563843 20.6518 2.2089 17.9357 4.76013 16.5C2.2089 15.0643 0.563843 12.3482 0.563843 9.28711C0.563843 4.7184 4.27077 1 8.83044 1C11.8864 1.00011 14.6364 2.70623 16.0638 5.2832C17.4912 2.7062 20.2411 1.00011 23.2972 1ZM23.2972 2.75C20.2318 2.75014 17.5475 4.9331 16.9193 7.93848C16.835 8.34322 16.4784 8.63477 16.0638 8.63477C15.6494 8.63472 15.2927 8.34319 15.2084 7.93848C14.58 4.9331 11.8959 2.75014 8.83044 2.75C5.23793 2.75 2.31189 5.68162 2.31189 9.28711C2.31189 12.3429 4.38363 14.9559 7.35095 15.6475C7.74805 15.7397 8.02673 16.0948 8.02673 16.5C8.02673 16.9055 7.74746 17.2595 7.34998 17.3516C4.38303 18.0434 2.31189 20.6573 2.31189 23.7129C2.31189 27.3184 5.23793 30.25 8.83044 30.25C11.8959 30.2499 14.58 28.0669 15.2084 25.0615L15.2523 24.915C15.3828 24.5883 15.7013 24.3653 16.0638 24.3652C16.4264 24.3652 16.7449 24.5883 16.8754 24.915L16.9193 25.0615L16.9838 25.3408C17.7152 28.2013 20.3275 30.2499 23.2972 30.25C26.8898 30.25 29.8158 27.3184 29.8158 23.7129C29.8158 20.6571 27.7441 18.0441 24.7767 17.3525C24.3796 17.2603 24.101 16.9052 24.101 16.5C24.101 16.0948 24.3796 15.7397 24.7767 15.6475C27.7441 14.9559 29.8158 12.3429 29.8158 9.28711C29.8158 5.68162 26.8898 2.75 23.2972 2.75Z" fill="#3DB370" stroke="#3DB370"></path>
  </symbol>
</svg>